<?xml version="1.0" encoding="utf-8"?>
<!-- Generator: Adobe Illustrator 22.1.0, SVG Export Plug-In . SVG Version: 6.00 Build 0)  -->
<svg version="1.1" id="Layer_1" xmlns="http://www.w3.org/2000/svg" xmlns:xlink="http://www.w3.org/1999/xlink" x="0px" y="0px"
	 viewBox="0 0 80 80" style="enable-background:new 0 0 80 80;" xml:space="preserve">
<path d="M27.3,18.8L10.7,63.1c-0.3,0.7,0.2,1.4,1,1.4h0c0.4,0,0.8-0.3,1-0.7l5.9-15.8h27L50.7,62c-1.6,0.3-3.3,0.6-5.1,0.5
	c-4.5-0.1-5.4,0-9.2-1.5c-0.6-0.2-1.2,0.1-1.3,0.7l0,0c-0.1,0.5,0.1,1,0.6,1.2c3,1.1,6.3,1.7,9.9,1.7c2.1,0,4.1-0.2,5.9-0.6
	c0.7-0.1,1.4-0.3,2-0.5c0.6-0.2,1.2-0.4,1.8-0.6c2.9-1.2,5.1-2.8,6.7-4.9c1.5-2.1,2.4-4.6,2.4-7.4c0-4.4-1.8-7.9-5.3-10.5
	c-2.8-2-7.2-3.8-13.1-5.4c-1.2-0.3-2.4-0.7-3.5-1c-0.9-0.3-1.7-0.5-2.5-0.9c-2.9-1-5.2-2.2-6.9-3.5c-2.6-2-4-4.6-3.9-8
	c0.1-3.1,3.7-7.5,3.7-7.5c0.2-0.2,0.5-0.4,0.8-0.6c0.3-0.2,0.6-0.4,0.9-0.6c2.8-1.7,6.4-2.6,10.8-2.6c4.6,0,8.3,1.2,11.2,3.6
	c0.3,0.3,0.8,0.3,1.1,0.1v0c0.7-0.3,0.8-1.2,0.2-1.7c-1.2-1.1-0.9-0.8-3.1-1.9C52,8.7,48.8,8,45.3,8c-4.6,0-8.4,0.9-11.6,2.7
	c-0.6,0.3-1.1,0.7-1.6,1c0,0-0.6,0.5-1.9,1.9C29.4,14.7,28.3,16.3,27.3,18.8z M27.3,48.2h-2 M19.3,46.1l8.1-21.6
	c0.2,1.3,0.7,2.4,1.3,3.4c1.1,1.8,2.8,3.3,5.2,4.6c1.7,1,3.9,1.9,6.8,2.8l4,10.7H19.3z M57.5,59.2c-1.4,1-3,1.7-4.8,2.3l-9.5-25.4
	c0.5,0.2,0.9,0.3,1.4,0.4c4.8,1.3,8.3,2.6,10.7,3.8c2.3,1.2,4.1,2.7,5.1,4.3c1.1,1.6,1.7,3.6,1.7,6C62.1,54.1,60.6,57,57.5,59.2z"/>
<g>
</g>
<g>
</g>
<g>
</g>
<g>
</g>
<g>
</g>
</svg>
